<svg width="1280" height="640" viewBox="0 0 1280 640" fill="none" xmlns="http://www.w3.org/2000/svg">
  <rect width="1280" height="640" rx="32" fill="#F8F2EA"/>
  <circle cx="164" cy="109" r="158" fill="#E8C8BB"/>
  <circle cx="1125" cy="112" r="181" fill="#D9E8DD"/>
  <circle cx="1037" cy="527" r="213" fill="#F6D8C8"/>
  <rect x="64" y="64" width="1152" height="512" rx="30" fill="white" fill-opacity="0.6"/>
  <rect x="740" y="122" width="378" height="356" rx="28" fill="#FFF9F3"/>
  <rect x="772" y="155" width="132" height="24" rx="12" fill="#DDECE2"/>
  <rect x="772" y="196" width="266" height="18" rx="9" fill="#E8EEF1"/>
  <rect x="772" y="224" width="304" height="18" rx="9" fill="#E8EEF1"/>
  <rect x="772" y="268" width="290" height="92" rx="24" fill="#FFFFFF"/>
  <rect x="789" y="285" width="110" height="16" rx="8" fill="#DEE8EC"/>
  <rect x="789" y="313" width="246" height="14" rx="7" fill="#EEF3F5"/>
  <rect x="789" y="336" width="221" height="14" rx="7" fill="#EEF3F5"/>
  <rect x="856" y="382" width="206" height="72" rx="24" fill="#2D4454"/>
  <rect x="878" y="403" width="110" height="13" rx="6.5" fill="#9CB3C0"/>
  <rect x="878" y="425" width="153" height="13" rx="6.5" fill="#E8F0F4"/>
  <path d="M158 456C158 435.013 175.013 418 196 418H642C662.987 418 680 435.013 680 456V461C680 481.987 662.987 499 642 499H196C175.013 499 158 481.987 158 461V456Z" fill="#FFFFFF"/>
  <rect x="188" y="438" width="313" height="14" rx="7" fill="#E6EDF1"/>
  <rect x="188" y="462" width="174" height="14" rx="7" fill="#EEF3F5"/>
  <rect x="537" y="430" width="115" height="56" rx="20" fill="#D96C3D"/>
  <text x="136" y="199" fill="#5F8D76" font-family="Arial, sans-serif" font-size="22" font-weight="700" letter-spacing="0.2em">ASTERA COMMERCE</text>
  <text x="136" y="285" fill="#1A242C" font-family="Arial, sans-serif" font-size="72" font-weight="700">Astera Support Desk</text>
  <text x="136" y="336" fill="#4E5C66" font-family="Arial, sans-serif" font-size="28">A polished ecommerce customer-service chatbot built with</text>
  <text x="136" y="374" fill="#4E5C66" font-family="Arial, sans-serif" font-size="28">Flask, lightweight NLP-style intent matching, and a</text>
  <text x="136" y="412" fill="#4E5C66" font-family="Arial, sans-serif" font-size="28">responsive support-desk interface.</text>
  <rect x="136" y="470" width="148" height="48" rx="24" fill="#FFFFFF"/>
  <rect x="296" y="470" width="140" height="48" rx="24" fill="#FFFFFF"/>
  <rect x="448" y="470" width="156" height="48" rx="24" fill="#FFFFFF"/>
  <text x="166" y="501" fill="#2D4454" font-family="Arial, sans-serif" font-size="20" font-weight="700">Flask API</text>
  <text x="330" y="501" fill="#2D4454" font-family="Arial, sans-serif" font-size="20" font-weight="700">Smart Intents</text>
  <text x="484" y="501" fill="#2D4454" font-family="Arial, sans-serif" font-size="20" font-weight="700">Responsive UI</text>
</svg>
